<svg xmlns="http://www.w3.org/2000/svg" xmlns:xlink="http://www.w3.org/1999/xlink" xmlns:serif="http://www.serif.com/" width="100%" height="100%" viewBox="0 0 331 469" xml:space="preserve" style="fill-rule:evenodd;clip-rule:evenodd;stroke-linejoin:round;stroke-miterlimit:2;"><g id="Layer_1"><g><g><circle cx="165.334" cy="66.5" r="66.5" style="fill:#3283c4;"></circle><path d="M291.865,65.375c-20.969,20.969 -41.969,41.938 -62.938,62.875c-5.031,5.031 -10.093,10.063 -15.125,15.094c-0.437,0.031 -0.843,-0 -1.25,0.031l-94.531,0c-0.469,-0.031 -0.906,-0.031 -1.344,-0.031l-78,-77.969c-20.062,-20.062 -52.437,12.281 -32.343,32.344c20.968,20.969 41.937,41.969 62.875,62.937c9.093,9.125 18.218,18.219 27.312,27.344l2.438,69.906l-0,186.969c-0,31.813 54.375,31.813 54.375,0l-0,-112.5l24.093,0l0,112.438c0,31.812 54.375,31.812 54.375,-0c0,-33.219 0.032,-66.438 0.063,-99.657c0.031,-28.844 0.062,-57.687 0.062,-86.5l2.219,-70.875l90.063,-90.062c20.093,-20.063 -12.282,-52.407 -32.344,-32.344Z" style="fill:#3283c4;"></path></g><g><path d="M165.302,205.969c2.25,-7.375 5.407,-12.906 9.532,-16.625c4.125,-3.719 9.125,-5.563 15.093,-5.563c6.438,0 11.907,2.125 16.375,6.344c4.469,4.219 6.688,9.375 6.688,15.406c-0,4.063 -1.281,8.875 -3.875,14.438c-2.594,5.562 -6.344,11.562 -11.281,18.031l-3.5,4.625c-16.688,21.781 -23.375,29.156 -29,39.25c-5.657,-10.719 -12.625,-17.719 -29.219,-39.406c-1.469,-1.906 -2.594,-3.344 -3.375,-4.313c-4.938,-6.437 -8.688,-12.437 -11.281,-18.031c-2.594,-5.594 -3.875,-10.437 -3.875,-14.562c-0,-6.063 2.218,-11.188 6.687,-15.407c4.469,-4.218 9.938,-6.343 16.438,-6.343c5.906,-0 10.906,1.843 14.968,5.531c4.063,3.687 7.282,9.219 9.625,16.625Z" style="fill:#f1f2f2;fill-rule:nonzero;"></path></g></g></g></svg>